Coordinates
version=1
nRows=17
nColumns=40
inDegrees=yes

Units are S.I. units (second, meters, Newtons, ...)
Angles are in degrees.

endheader
time	pelvis_tilt	pelvis_list	pelvis_rotation	pelvis_tx	pelvis_ty	pelvis_tz	hip_flexion_r	hip_adduction_r	hip_rotation_r	knee_angle_r	knee_angle_r_beta	ankle_angle_r	subtalar_angle_r	mtp_angle_r	hip_flexion_l	hip_adduction_l	hip_rotation_l	knee_angle_l	knee_angle_l_beta	ankle_angle_l	subtalar_angle_l	mtp_angle_l	lumbar_extension	lumbar_bending	lumbar_rotation	arm_flex_r	arm_add_r	arm_rot_r	elbow_flex_r	pro_sup_r	wrist_flex_r	wrist_dev_r	arm_flex_l	arm_add_l	arm_rot_l	elbow_flex_l	pro_sup_l	wrist_flex_l	wrist_dev_l
     19.99500000	     -5.55153731	     -2.76590999	    -12.46276010	      1.04506932	      0.92460644	      0.49373865	     22.06791587	      2.20397609	     -1.56099824	     21.65460628	     21.65460628	      7.70819626	      3.09719583	     -2.68074402	      1.25792880	     -5.85040530	    -16.91792136	     15.93290481	     15.93290481	     17.87594315	    -12.59811252	      1.80612270	     -9.57383973	      6.47157796	     -0.37714451	    -19.56380741	    -13.51620013	     -5.00384502	     33.75843046	     45.57396905	      0.00000000	      0.00000000	     46.97070968	    -25.47943262	     -8.52203861	     67.78288315	     48.30636776	      0.00000000	      0.00000000
     20.01914286	     -5.66599197	     -3.02046127	    -11.94990934	      1.04662910	      0.92502684	      0.49893615	     21.51446368	      2.64659564	     -2.02830159	     21.50034248	     21.50034248	      8.11608248	      2.95139275	     -2.62568840	      1.10817016	     -6.57028742	    -16.63441925	     16.28847882	     16.28847882	     17.73286083	    -12.37527682	      1.95477246	     -9.48663911	      6.61472481	     -0.41577272	    -19.36226083	    -13.62842248	     -5.05820125	     33.61041969	     45.58856943	      0.00000000	      0.00000000	     46.15743548	    -25.10009625	     -8.33940405	     67.64891152	     48.28027863	      0.00000000	      0.00000000
     20.04328571	     -5.79110746	     -3.26254774	    -11.40846517	      1.04782201	      0.92541963	      0.50404127	     20.94830592	      3.09254660	     -2.48819132	     21.23517684	     21.23517684	      8.48180646	      2.76400544	     -2.53521996	      1.24504621	     -7.37745085	    -16.35780136	     17.10038127	     17.10038127	     17.68555885	    -12.10766853	      2.06006264	     -9.43986239	      6.75710180	     -0.42241708	    -18.94122616	    -13.73121574	     -5.11502872	     33.40356643	     45.60839013	      0.00000000	      0.00000000	     45.15930503	    -24.68963722	     -8.12450543	     67.48637863	     48.24830543	      0.00000000	      0.00000000
     20.06742857	     -5.89484545	     -3.50769927	    -10.87220598	      1.04869652	      0.92578523	      0.50913081	     20.40962088	      3.56502161	     -2.85417169	     21.02237290	     21.02237290	      8.89029265	      2.47983064	     -2.27639088	      1.65473484	     -8.33255299	    -16.27909791	     18.47444067	     18.47444067	     18.06827046	    -11.35590080	      2.77637824	     -9.40401567	      6.83080565	     -0.67881700	    -17.76221223	    -13.76896032	     -5.29775646	     32.04769356	     45.70678889	      0.00000000	      0.00000000	     43.59982264	    -24.49348572	     -7.98287393	     67.62093925	     48.19312836	      0.00000000	      0.00000000
     20.09157143	     -5.75438726	     -3.46793506	    -10.36216371	      1.04955768	      0.92645193	      0.51388968	     19.73759013	      3.66998749	     -3.19966843	     20.93074261	     20.93074261	      9.30562254	      2.32902548	     -2.35984333	      1.74107472	     -8.76631804	    -15.76872263	     19.47352083	     19.47352083	     17.70644352	    -11.45774803	      2.70413380	     -9.60622907	      6.54330053	     -0.51598867	    -17.10052309	    -13.82300829	     -5.30509722	     32.20890508	     45.70692124	      0.00000000	      0.00000000	     42.17419259	    -23.60542026	     -7.66181070	     67.18821913	     48.15030139	      0.00000000	      0.00000000
     20.11571429	     -5.93856281	     -3.94887452	     -9.69247584	      1.04976953	      0.92638272	      0.51861908	     19.19597587	      4.35234697	     -3.87308498	     20.49460849	     20.49460849	      9.54651955	      2.28412950	     -2.36667059	      3.05094869	    -10.10095497	    -14.79596038	     22.17798102	     22.17798102	     17.42994094	    -12.24960417	      2.15280526	     -9.55508916	      6.94202348	     -0.42107590	    -16.20161681	    -14.03742165	     -5.35323633	     32.12414449	     45.72410769	      0.00000000	      0.00000000	     40.53647516	    -22.92114426	     -7.39703601	     66.54160121	     48.10311013	      0.00000000	      0.00000000
     20.13985714	     -6.02614342	     -4.14434067	     -8.99179483	      1.04985323	      0.92625574	      0.52306874	     18.79814182	      4.72552880	     -4.36518374	     20.38435130	     20.38435130	      9.86498039	      1.91703264	     -2.43965189	      4.41313271	    -11.08916449	    -13.78722416	     24.95780250	     24.95780250	     16.92707890	    -12.83081916	      1.40270303	     -9.50314357	      6.94182088	     -0.49356793	    -14.85135282	    -14.13499345	     -5.38112743	     31.89194099	     45.75080015	      0.00000000	      0.00000000	     38.58361775	    -22.07435704	     -7.08052269	     65.62383408	     48.04340283	      0.00000000	      0.00000000
     20.16400000	     -5.94731215	     -4.37522733	     -8.28339246	      1.04979580	      0.92604818	      0.52741458	     18.33608948	      5.12001286	     -4.79387318	     20.45815472	     20.45815472	     10.25956036	      1.43824551	     -2.55050725	      5.90086710	    -12.09765579	    -12.57585299	     28.22445147	     28.22445147	     16.18787516	    -13.67667747	      0.50312474	     -9.66607457	      6.94229461	     -0.48128270	    -13.23802581	    -14.25078145	     -5.39718234	     31.65157391	     45.77912491	      0.00000000	      0.00000000	     36.44077171	    -21.13935229	     -6.72553831	     64.47268793	     47.97644436	      0.00000000	      0.00000000
     20.18814286	     -5.88435566	     -4.55496455	     -7.51646480	      1.04955051	      0.92544938	      0.53155788	     18.04821382	      5.51672567	     -4.92379861	     20.74427509	     20.74427509	     10.67960010	      0.33525236	     -2.63767331	      7.63184610	    -12.99444456	    -11.09395471	     31.65895590	     31.65895590	     14.21991284	    -15.23138197	     -2.57471946	     -9.64415811	      6.83964190	     -0.97440826	     -9.86111424	    -14.13304723	     -5.32874243	     28.11781776	     45.97671694	      0.00000000	      0.00000000	     34.03828277	    -20.32967264	     -6.70000778	     62.20126496	     47.88433652	      0.00000000	      0.00000000
     20.21228571	     -5.68974753	     -4.81304448	     -6.68773296	      1.04912924	      0.92451234	      0.53545684	     17.77787316	      5.89677739	     -5.34959412	     21.29831570	     21.29831570	     11.22384574	     -0.41347812	     -2.83618712	      9.68186065	    -13.95253313	     -9.39433570	     35.89580871	     35.89580871	     13.08013629	    -16.25844071	     -3.32058886	     -9.89597547	      6.81330436	     -0.93568096	     -7.97122124	    -14.22957186	     -5.40155613	     28.52487537	     45.98513544	      0.00000000	      0.00000000	     31.52310364	    -19.17069756	     -6.21522921	     60.67240296	     47.79927195	      0.00000000	      0.00000000
     20.23642857	     -5.38021798	     -5.09312307	     -5.81169776	      1.04858530	      0.92324676	      0.53911395	     17.57064836	      6.30323615	     -5.67486162	     22.15043214	     22.15043214	     11.84023997	     -1.51700275	     -3.04431495	     11.84324919	    -14.81198845	     -7.47952054	     40.37915771	     40.37915771	     11.70557691	    -17.29293363	     -3.84610937	    -10.29341732	      6.79782567	     -0.92660267	     -5.74976414	    -14.34021052	     -5.43903185	     28.91367926	     45.99408711	      0.00000000	      0.00000000	     28.95510152	    -18.00558723	     -5.68638962	     58.67043090	     47.70477467	      0.00000000	      0.00000000
     20.26057143	     -5.13478441	     -5.31889391	     -4.84603715	      1.04783798	      0.92139071	      0.54251994	     17.62978675	      6.68061585	     -5.83315557	     23.28699697	     23.28699697	     12.51153485	     -3.08275158	     -3.21468262	     14.30532619	    -15.49036137	     -5.39931187	     45.01051357	     45.01051357	     10.23336532	    -18.09294886	     -3.94702883	    -10.50286160	      6.72218520	     -1.09502470	     -3.22123684	    -14.39823939	     -5.45294832	     29.25244536	     46.00615219	      0.00000000	      0.00000000	     26.26563465	    -16.93272852	     -5.11691276	     55.95845960	     47.59664893	      0.00000000	      0.00000000
     20.28471429	     -4.83217183	     -5.41664528	     -3.88831728	      1.04690010	      0.91933904	      0.54566661	     17.78348692	      7.04416176	     -5.46090152	     24.62901113	     24.62901113	     13.26401011	     -5.52538207	     -2.66831933	     16.88678812	    -15.71061386	     -3.05557209	     49.80532772	     49.80532772	     10.06449893	    -18.41556365	      0.01342742	    -10.58698555	      6.47276193	     -1.19957480	      0.39524910	    -14.25750586	     -5.19720417	     27.14469978	     46.12758945	      0.00000000	      0.00000000	     24.82587428	    -15.54827442	     -4.32065817	     49.21629135	     47.42532308	      0.00000000	      0.00000000
     20.30885714	     -4.47880923	     -5.63877972	     -2.84403811	      1.04590941	      0.91677844	      0.54847163	     17.98285954	      7.36522608	     -5.76218419	     26.15031172	     26.15031172	     14.05592351	     -7.06546136	     -2.89108998	     19.34637912	    -16.03563430	     -0.95324014	     54.12752897	     54.12752897	      8.74026535	    -18.80346851	      0.80725069	    -10.94436685	      6.37150935	     -1.28580170	      3.03816423	    -14.37175367	     -5.33913667	     28.19945826	     46.11905726	      0.00000000	      0.00000000	     21.89092056	    -14.50702794	     -3.80517645	     46.75636739	     47.31994972	      0.00000000	      0.00000000
     20.33300000	     -4.06204181	     -5.59837284	     -1.79918251	      1.04479898	      0.91443433	      0.55076660	     18.18940743	      7.49175774	     -5.62353871	     27.77063022	     27.77063022	     15.00659290	     -9.08235290	     -1.97795743	     21.80938592	    -15.56709385	      1.41635709	     58.38965654	     58.38965654	     10.05252328	    -18.88135464	      9.02648775	    -11.19881873	      6.03046494	     -1.22786959	      6.15880625	    -14.37632894	     -5.45236796	     28.50460358	     46.15300463	      0.00000000	      0.00000000	     20.27046682	    -13.11656590	     -2.89997441	     40.22204800	     47.14548721	      0.00000000	      0.00000000
     20.35714286	     -3.63111670	     -5.70046328	     -0.70480943	      1.04367930	      0.91199032	      0.55292108	     18.28966256	      7.76188895	     -5.66549448	     29.19978737	     29.19978737	     15.85134001	    -10.94003375	     -1.34137453	     23.99020211	    -15.34985595	      3.30360943	     61.74475297	     61.74475297	     10.19101138	    -19.08900439	     13.14750573	    -11.55475579	      5.83928607	     -1.25586439	      9.03505186	    -14.46432304	     -5.66171052	     30.06362508	     46.12966332	      0.00000000	      0.00000000	     17.78093070	    -12.05184411	     -2.22669714	     35.97744090	     46.99828598	      0.00000000	      0.00000000
     20.38128571	     -3.26801079	     -5.76330902	      0.42372188	      1.04247922	      0.90967162	      0.55468971	     18.39618802	      7.96161219	     -5.80806045	     30.47760351	     30.47760351	     16.61250618	    -12.60304148	     -0.75841876	     26.04291095	    -15.07566764	      4.82704767	     64.29596915	     64.29596915	     10.33962702	    -19.26177205	     16.34169697	    -11.84697653	      5.65138196	     -1.35666866	     11.95685955	    -14.61723166	     -5.78167445	     31.96730591	     46.08162876	      0.00000000	      0.00000000	     15.05744554	    -11.15156704	     -1.58643494	     32.21036897	     46.84960535	      0.00000000	      0.00000000
